# xmcd
#
# Track frame offsets:
#	150
#	11221
#	28057
#	38934
#	52101
#	62878
#	75241
#	89581
#	100873
#	119129
#	129555
#	139163
#	153502
#	164294
#	173649
#
# Disc length: 2464 seconds
#
# Revision: 1
# Processed by: cddbd v1.5.2PL0 Copyright (c) Steve Scherf et al.
# Submitted via: audiograbber 1.83.01
#
DISCID=cf099e0f
DTITLE=Billy Vaughn - Greatest Hits CD2
DYEAR=2006
DGENRE=Blues
TTITLE0=La Paloma
TTITLE1=Fernando
TTITLE2=Diana
TTITLE3=When I Need You
TTITLE4=Always On My Mind
TTITLE5=Greensleeves
TTITLE6=Magic Moments
TTITLE7=When
TTITLE8=Bridge Over Troubled Water
TTITLE9=My Melody Of Love
TTITLE10=Swingin' Safari
TTITLE11=Another Somebody Done Somebody Wrong Song
TTITLE12=Amazing Grace
TTITLE13=Love Story
TTITLE14=Morgen
EXTD=
EXTT0=
EXTT1=
EXTT2=
EXTT3=
EXTT4=
EXTT5=
EXTT6=
EXTT7=
EXTT8=
EXTT9=
EXTT10=
EXTT11=
EXTT12=
EXTT13=
EXTT14=
PLAYORDER=
